<svg width="800" height="800" viewBox="0 0 800 800" fill="none" xmlns="http://www.w3.org/2000/svg">
<g clip-path="url(#clip0_202_26)">
<path d="M400 0C179.08 0 0 179.08 0 400C0 620.92 179.08 800 400 800C620.92 800 800 620.92 800 400C800 179.08 620.92 0 400 0ZM440 737V480H540V400H440V340C440 317.94 457.94 300 480 300H540V220H480C413.82 220 360 273.82 360 340V400H260V480H360V737C202.4 717.22 63 561.88 63 399C63 222.54 223.56 63 400 63C576.44 63 737 223.54 737 400C737 562.88 597.6 717.22 440 737Z" fill="black"/>
</g>
<defs>
<clipPath id="clip0_202_26">
<rect width="800" height="800" fill="white"/>
</clipPath>
</defs>
</svg>
